# xmcd CD database file
#
# Track frame offsets:
#	150
#	21005
#	43045
#	62316
#	85192
#	87814
#	99286
#	118414
#	139416
#	141669
#	159198
#	181394
#
# Disc length: 2647 seconds
#
# Revision: 1
# Processed by: cddbd v1.5.1PL0 Copyright (c) Steve Scherf et al.
# Submitted via: CDex 1.40Release
#
DISCID=9c0a550c
DTITLE=DANCE?MAN - MIRRRORBALLISM
DYEAR=1998
DGENRE=Dance
TTITLE0=??????????
TTITLE1=?????
TTITLE2=?????????21
TTITLE3=????
TTITLE4=MC?1
TTITLE5=??????????
TTITLE6=???????????
TTITLE7=?????
TTITLE8=MC#2
TTITLE9=??????????
TTITLE10=??????
TTITLE11=??
EXTD=YEAR: 1998 ID3G: 3
EXTT0=
EXTT1=
EXTT2=
EXTT3=
EXTT4=
EXTT5=
EXTT6=
EXTT7=
EXTT8=
EXTT9=
EXTT10=
EXTT11=
PLAYORDER=
